# xmcd
#
# Track frame offsets: 
#        150
#        19250
#        33357
#        41522
#        52767
#        62665
#        76755
#        93710
#        101590
#        109755
#        117870
#        136522
#        143885
#        164347
#        182215
#        188067
#        196765
#        208242
#        216407
#        222927
#        238465
#        254277
#        268140
#        277990
#
# Disc length: 3819 seconds
#
# Revision: 0
# Processed by: cddbd v1.5.2PL0 Copyright (c) Steve Scherf et al.
# Submitted via: ExactAudioCopyFreeDBPlugin 1.0
#
DISCID=610ee918
DTITLE=こんにゃく座 - ぼくたちのオペラハウス
DYEAR=1996
DGENRE=Chorus
TTITLE0=雨の音楽
TTITLE1=枯れたオレンジの木のシャンソン
TTITLE2=銀河の底でうたわれた愛の歌
TTITLE3=サザンクロスの彼方できこえた父が息子にあたえる歌
TTITLE4=夢の番人
TTITLE5=ロマンス
TTITLE6=ひみつ
TTITLE7=うんこ
TTITLE8=ひびかせうた
TTITLE9=岩手軽便鉄道の一月
TTITLE10=序詞(「注文の多い料理店」序)
TTITLE11=海だべがど
TTITLE12=星めぐりの歌
TTITLE13=パレード
TTITLE14=ディンディリディン…(オペラ『十二夜』より)
TTITLE15=暗い柳の木立のかげ
TTITLE16=あらしの歌
TTITLE17=マルチェリーナのタンゴ(オペラ『フィガロの結婚、或いは狂おしき一日』より)
TTITLE18=三十五億年のサーカス
TTITLE19=花の歌
TTITLE20=告別
TTITLE21=夢へ
TTITLE22=フェステの歌(オペラ『十二夜』より)
TTITLE23=ぼくたちのオペラハウス
EXTD=
EXTT0=
EXTT1=
EXTT2=
EXTT3=
EXTT4=
EXTT5=
EXTT6=
EXTT7=
EXTT8=
EXTT9=
EXTT10=
EXTT11=
EXTT12=
EXTT13=
EXTT14=
EXTT15=
EXTT16=
EXTT17=
EXTT18=
EXTT19=
EXTT20=
EXTT21=
EXTT22=
EXTT23=
PLAYORDER=
